<svg width="71" height="17" viewBox="0 0 71 17" fill="none" xmlns="http://www.w3.org/2000/svg">
<path d="M9.12 13.72C9.856 13.72 10.48 13.656 10.992 13.528C11.504 13.4 11.944 13.224 12.312 13L12.984 15.4C12.6 15.624 12.056 15.824 11.352 16C10.648 16.176 9.792 16.264 8.784 16.264C7.648 16.264 6.6 16.088 5.64 15.736C4.68 15.368 3.848 14.848 3.144 14.176C2.456 13.488 1.92 12.664 1.536 11.704C1.152 10.728 0.96 9.632 0.96 8.416C0.96 7.232 1.144 6.16 1.512 5.2C1.896 4.24 2.424 3.424 3.096 2.752C3.784 2.064 4.616 1.536 5.592 1.168C6.568 0.799999 7.656 0.615999 8.856 0.615999C9.88 0.615999 10.72 0.711999 11.376 0.904C12.048 1.096 12.592 1.304 13.008 1.528L12.264 3.952C11.848 3.728 11.384 3.544 10.872 3.4C10.376 3.24 9.816 3.16 9.192 3.16C8.536 3.16 7.92 3.256 7.344 3.448C6.768 3.64 6.264 3.952 5.832 4.384C5.4 4.8 5.056 5.344 4.8 6.016C4.56 6.672 4.44 7.472 4.44 8.416C4.44 9.328 4.56 10.12 4.8 10.792C5.04 11.448 5.368 11.992 5.784 12.424C6.216 12.856 6.712 13.184 7.272 13.408C7.848 13.616 8.464 13.72 9.12 13.72ZM25.7948 10.192C25.7948 11.136 25.6428 11.984 25.3387 12.736C25.0348 13.488 24.6108 14.128 24.0668 14.656C23.5388 15.168 22.9148 15.568 22.1948 15.856C21.4748 16.128 20.6988 16.264 19.8668 16.264C19.0348 16.264 18.2588 16.136 17.5388 15.88C16.8348 15.624 16.2188 15.248 15.6908 14.752C15.1788 14.256 14.7708 13.648 14.4668 12.928C14.1788 12.192 14.0348 11.36 14.0348 10.432C14.0348 9.456 14.1868 8.592 14.4908 7.84C14.7948 7.072 15.2108 6.432 15.7388 5.92C16.2828 5.392 16.9148 4.992 17.6348 4.72C18.3548 4.448 19.1308 4.312 19.9628 4.312C20.7948 4.312 21.5628 4.44 22.2668 4.696C22.9868 4.952 23.6028 5.328 24.1148 5.824C24.6428 6.304 25.0508 6.912 25.3387 7.648C25.6428 8.384 25.7948 9.232 25.7948 10.192ZM22.5068 10.312C22.5068 9.656 22.4348 9.096 22.2908 8.632C22.1468 8.168 21.9548 7.792 21.7148 7.504C21.4748 7.216 21.1948 7.008 20.8748 6.88C20.5548 6.736 20.2268 6.664 19.8908 6.664C19.5548 6.664 19.2348 6.728 18.9308 6.856C18.6268 6.968 18.3548 7.168 18.1148 7.456C17.8748 7.728 17.6828 8.096 17.5388 8.56C17.3948 9.024 17.3228 9.608 17.3228 10.312C17.3228 10.936 17.3948 11.48 17.5388 11.944C17.6828 12.392 17.8748 12.76 18.1148 13.048C18.3708 13.336 18.6508 13.552 18.9548 13.696C19.2748 13.84 19.6028 13.912 19.9388 13.912C20.2748 13.912 20.5948 13.856 20.8988 13.744C21.2028 13.616 21.4748 13.408 21.7148 13.12C21.9548 12.832 22.1468 12.464 22.2908 12.016C22.4348 11.552 22.5068 10.984 22.5068 10.312ZM34.977 7.288C34.033 6.84 33.121 6.616 32.241 6.616C31.729 6.616 31.329 6.704 31.041 6.88C30.769 7.056 30.633 7.296 30.633 7.6C30.633 7.904 30.753 8.152 30.993 8.344C31.249 8.536 31.753 8.744 32.505 8.968L33.225 9.184C34.217 9.472 34.969 9.888 35.481 10.432C35.993 10.976 36.249 11.68 36.249 12.544C36.249 13.68 35.809 14.584 34.929 15.256C34.065 15.928 32.889 16.264 31.401 16.264C29.881 16.264 28.577 15.992 27.489 15.448L28.209 13.096C28.673 13.336 29.161 13.536 29.673 13.696C30.185 13.84 30.705 13.912 31.233 13.912C31.873 13.912 32.337 13.816 32.625 13.624C32.929 13.416 33.081 13.152 33.081 12.832C33.081 12.496 32.937 12.24 32.649 12.064C32.361 11.872 31.817 11.664 31.017 11.44L30.273 11.224C29.313 10.904 28.609 10.48 28.161 9.952C27.713 9.424 27.489 8.72 27.489 7.84C27.489 6.8 27.881 5.952 28.665 5.296C29.449 4.64 30.545 4.312 31.953 4.312C33.345 4.312 34.577 4.56 35.649 5.056L34.977 7.288ZM41.6867 16H38.4947V4.552H40.9907L41.3747 6.016C41.8867 5.488 42.4467 5.072 43.0547 4.768C43.6627 4.464 44.3507 4.312 45.1187 4.312C46.7507 4.312 47.8627 4.904 48.4547 6.088C48.9667 5.528 49.5507 5.096 50.2067 4.792C50.8627 4.472 51.5667 4.312 52.3187 4.312C53.5347 4.312 54.4627 4.64 55.1027 5.296C55.7587 5.952 56.0867 6.904 56.0867 8.152V16H52.8947V8.512C52.8947 7.968 52.7587 7.544 52.4867 7.24C52.2307 6.92 51.8467 6.76 51.3347 6.76C50.9027 6.76 50.4627 6.864 50.0147 7.072C49.5827 7.28 49.2067 7.576 48.8867 7.96V16H45.6947V8.512C45.6947 7.968 45.5587 7.544 45.2867 7.24C45.0307 6.92 44.6467 6.76 44.1347 6.76C43.7027 6.76 43.2627 6.88 42.8147 7.12C42.3827 7.344 42.0067 7.656 41.6867 8.056V16ZM70.1151 10.192C70.1151 11.136 69.9631 11.984 69.6591 12.736C69.3551 13.488 68.9311 14.128 68.3871 14.656C67.8591 15.168 67.2351 15.568 66.5151 15.856C65.7951 16.128 65.0191 16.264 64.1871 16.264C63.3551 16.264 62.5791 16.136 61.8591 15.88C61.1551 15.624 60.5391 15.248 60.0111 14.752C59.4991 14.256 59.0911 13.648 58.7871 12.928C58.4991 12.192 58.3551 11.36 58.3551 10.432C58.3551 9.456 58.5071 8.592 58.8111 7.84C59.1151 7.072 59.5311 6.432 60.0591 5.92C60.6031 5.392 61.2351 4.992 61.9551 4.72C62.6751 4.448 63.4511 4.312 64.2831 4.312C65.1151 4.312 65.8831 4.44 66.5871 4.696C67.3071 4.952 67.9231 5.328 68.4351 5.824C68.9631 6.304 69.3711 6.912 69.6591 7.648C69.9631 8.384 70.1151 9.232 70.1151 10.192ZM66.8271 10.312C66.8271 9.656 66.7551 9.096 66.6111 8.632C66.4671 8.168 66.2751 7.792 66.0351 7.504C65.7951 7.216 65.5151 7.008 65.1951 6.88C64.8751 6.736 64.5471 6.664 64.2111 6.664C63.8751 6.664 63.5551 6.728 63.2511 6.856C62.9471 6.968 62.6751 7.168 62.4351 7.456C62.1951 7.728 62.0031 8.096 61.8591 8.56C61.7151 9.024 61.6431 9.608 61.6431 10.312C61.6431 10.936 61.7151 11.48 61.8591 11.944C62.0031 12.392 62.1951 12.76 62.4351 13.048C62.6911 13.336 62.9711 13.552 63.2751 13.696C63.5951 13.84 63.9231 13.912 64.2591 13.912C64.5951 13.912 64.9151 13.856 65.2191 13.744C65.5231 13.616 65.7951 13.408 66.0351 13.12C66.2751 12.832 66.4671 12.464 66.6111 12.016C66.7551 11.552 66.8271 10.984 66.8271 10.312Z" fill="#1565C0"/>
</svg>
